<svg xmlns="http://www.w3.org/2000/svg" width="64" height="64" viewBox="0 0 64 64">
   <path
      d="M60.103 41.694c2.283-.079 2.531-2.947 2.874-3.268-.396-.085-1.571-1.85-3.195-1.956a30.437 30.437 0 00-.158-3.754c.384-.053.77-.137 1.138-.248 2.579-.785 1.74-4.139 2.01-4.613-.475.021-2.431-1.571-4.287-1.292a52.389 52.389 0 00-.643-2.277c-.1-.332-.217-.66-.333-.981.116-.058.227-.121.338-.184 2.172-1.297.453-4.218.57-4.72-.38.106-2.136-.663-3.675-.431-.422-.596-.88-1.17-1.36-1.724.084-.074.163-.153.242-.232 1.819-1.835-.849-4.392-.88-4.925-.396.222-2.921-.263-4.413.723a26.508 26.508 0 00-2.726-1.598c.364-1.887-2.178-3.627-2.31-4.096-.374.306-3.263.195-4.533 1.581a31.897 31.897 0 00-3.153-.585c-.686-1.671-3.343-2.42-3.57-2.82-.274.374-2.746 1.149-3.505 2.704-1.16.116-2.304.3-3.433.554-1.334-1.229-4.022-1.139-4.38-1.434-.127.453-2.479 2.088-2.331 3.885a37.177 37.177 0 00-2.968 1.65c-1.508-.774-3.775-.353-4.15-.564-.037.507-2.43 2.837-1.117 4.64a25.618 25.618 0 00-2.014 2.214c-1.176.11-2.262.533-2.547.454.095.41-1.054 2.472-.242 3.906a21.682 21.682 0 00-1.592 4.45c-1.197.38-2.204 1.112-2.526 1.097.264.464-.532 3.7 1.882 4.56.006 1.36.116 2.768.338 4.218-1.223.47-2.104 1.713-2.43 1.787.342.322.59 3.19 2.873 3.269.242.01.485 0 .727-.021.18.585.375 1.17.585 1.766.28.77.528 1.46.76 2.077-.022-.005-.043-.005-.064-.01-2.135-.248-2.8 2.346-3.184 2.546.395.206 1.46 2.668 3.49 2.214a5.041 5.041 0 001.529-.606c.522 1.012 1.102 1.935 1.877 3.09-1.845.38-1.671 2.71-1.95 2.968.421.084 2.13 2.014 3.816 1.128.886-.464 1.661-1.207 1.782-2.056l1.434-.58c.696.485 1.735 1.091 2.768.548.97-.506 1.787-1.376 1.635-2.34l2.815-1.145c-.042.222-.08.39-.137.449.353.073 1.787 1.687 3.205.949.981-.512 1.793-1.43 1.419-2.415l-.016-.048a1.428 1.428 0 00-.443-.569l3.074-1.25c.242.791.511 1.524.696 1.661.047.037.1.069.152.095-.01.032-.01.069-.02.1.268 1.176.3 3.259-.132 5.468l-3.264 1.233.042.153 2.636-.659c.116-.026.211.095.153.195l-1.286 2.299.137.053 1.998-2.373a.137.137 0 01.18-.026l1.66 1.128.016.021.01-.005.01.005.017-.021 1.66-1.128a.137.137 0 01.18.026l1.998 2.373.137-.053-1.286-2.299a.134.134 0 01.152-.195l2.637.66.042-.154-3.258-1.233h.01c-.432-2.21-.406-4.297-.132-5.468-.01-.031-.01-.068-.02-.1a.921.921 0 00.152-.095c.195-.142.475-.928.728-1.755l3.574 1.323c-.2.153-.364.348-.464.59l-.016.048c-.374.986.438 1.903 1.419 2.415 1.418.743 2.852-.876 3.205-.95-.074-.068-.11-.321-.174-.637l2.473.917c-.01.021-.027.037-.032.058-.005.016-.016.037-.021.053-.411 1.08.48 2.088 1.555 2.646 1.392.728 2.795-.611 3.353-.96l.891.333c-.305 1.112.628 2.135 1.74 2.715 1.687.88 3.396-1.044 3.817-1.128-.253-.237-.131-2.151-1.45-2.805.56-1.08 1.07-2.13 1.54-3.158.416.232.89.406 1.37.517 2.03.453 3.095-2.009 3.49-2.215-.384-.2-1.043-2.762-3.152-2.546a32.268 32.268 0 001.065-3.849c.29.042.596.053.896.042zM33.663 55.82c-.005 0-.01.005-.015.005l-1.65 1.724-1.65-1.724c-.322-2.035.384-4.424.89-5.568-.037-.079-.063-.158-.095-.237.18-.195.296-.69.364-1.165.163.01.327.026.5.026.175 0 .338-.01.502-.02.068.474.184.964.364 1.159-.032.079-.058.158-.095.237.495 1.144 1.202 3.527.885 5.562z"
      stroke-miterlimit="10" fill="none" stroke="#0e7eb3" stroke-width="2.047" stroke-linecap="round"
      stroke-linejoin="round" />
   <radialGradient id="prefix__a" cx="64.456" cy="88.718" r="57.045"
      gradientTransform="matrix(.52722 0 0 .47798 -1.74 -.95)" gradientUnits="userSpaceOnUse">
      <stop stop-color="#133C65" offset="0" />
      <stop stop-color="#0D6E7B" offset=".116" />
      <stop stop-color="#079A8F" offset=".237" />
      <stop stop-color="#03BA9D" offset=".346" />
      <stop stop-color="#01CEA6" offset=".437" />
      <stop stop-color="#00D5A9" offset=".499" />
      <stop stop-color="#00D5A9" offset=".997" />
   </radialGradient>
   <path
      d="M32.003 47.193l-20.467 8.315c-3.58-5.12-4.054-5.763-6.321-12.068C-.67 27.064 6.269 15.365 20.082 9.197c13.813-6.169 33.22.11 37.76 15.094 3.838 12.664 1.792 19.955-4.181 30.916z"
      fill="url(#prefix__a)" />
   <path
      d="M28.349 8.411c.374 1.75 1.613 3.506 3.685 3.564h.1c2.046 0 3.222-1.856 3.58-3.564.543-2.61-3.4-3.627-3.68-4.117-.342.474-4.228 1.581-3.685 4.117z"
      fill="#00b5a9" />
   <path
      d="M32.034 6.36s-2.34 1.54-2.34 2.773c0 1.234 1.049 2.236 2.34 2.236 1.292 0 2.341-1.002 2.341-2.236 0-1.228-2.34-2.773-2.34-2.773z"
      fill="#deb366" />
   <path
      d="M32.034 7.214s-1.782 1.371-1.782 2.246.796 1.587 1.777 1.587c.98 0 1.782-.712 1.782-1.587.005-.875-1.777-2.246-1.777-2.246z"
      fill="#0084ff" />
   <path
      d="M32.034 8.21s-1.244.818-1.244 1.372c0 .553.559 1.007 1.244 1.007.69 0 1.245-.454 1.245-1.007 0-.56-1.245-1.371-1.245-1.371z"
      fill="#2b1fa6" />
   <path
      d="M28.644 16.847c.348 1.608 1.482 3.226 3.39 3.279h.095c1.882 0 2.963-1.703 3.295-3.28.501-2.398-3.131-3.337-3.384-3.785-.322.438-3.897 1.455-3.396 3.786z"
      fill="#008777" />
   <path
      d="M32.034 14.964s-2.15 1.419-2.15 2.552c0 1.134.964 2.056 2.15 2.056 1.192 0 2.157-.922 2.157-2.056 0-1.133-2.157-2.552-2.157-2.552z"
      fill="#deb366" />
   <path
      d="M32.034 15.75s-1.64 1.26-1.64 2.067c0 .806.733 1.46 1.635 1.46.907 0 1.64-.654 1.64-1.46.005-.807-1.635-2.067-1.635-2.067z"
      fill="#0084ff" />
   <path
      d="M32.034 16.662s-1.144.749-1.144 1.26c0 .512.512.928 1.144.928.633 0 1.144-.416 1.144-.928 0-.511-1.144-1.26-1.144-1.26z"
      fill="#2b1fa6" />
   <path
      d="M29.625 25.235c.248 1.144 1.054 2.293 2.41 2.33h.068c1.339 0 2.109-1.213 2.34-2.33.354-1.703-2.224-2.373-2.403-2.69-.232.307-2.768 1.034-2.415 2.69z"
      fill="#00717d" />
   <path
      d="M32.034 23.896s-1.529 1.007-1.529 1.813c0 .807.686 1.46 1.53 1.46.843 0 1.528-.653 1.528-1.46 0-.806-1.529-1.813-1.529-1.813z"
      fill="#deb366" />
   <path
      d="M32.034 24.454s-1.165.897-1.165 1.466c0 .575.522 1.039 1.16 1.039.643 0 1.165-.464 1.165-1.039.005-.57-1.16-1.466-1.16-1.466z"
      fill="#0084ff" />
   <path d="M32.034 25.103s-.812.532-.812.896.364.66.812.66c.448 0 .812-.296.812-.66 0-.364-.812-.896-.812-.896z"
      fill="#2b1fa6" />
   <ellipse cx="32.003" cy="36.343" rx="9.142" ry="12.68" fill="#00e8d9" />
   <path
      d="M18.748 11.031c1.028 1.503 2.879 2.752 4.882 2.178.032-.01.064-.016.1-.027 1.962-.616 2.378-2.683 2.073-4.37-.47-2.573-4.635-2.325-5.088-2.694-.158.543-3.453 2.741-1.967 4.913z"
      fill="#00b5a9" />
   <path
      d="M21.495 8.032s-1.655 2.13-1.186 3.268c.47 1.14 1.85 1.745 3.09 1.36 1.238-.39 1.86-1.629 1.391-2.767-.469-1.144-3.295-1.861-3.295-1.861z"
      fill="#deb366" />
   <path
      d="M21.822 8.822s-1.18 1.798-.849 2.61c.332.807 1.366 1.223 2.304.928.939-.295 1.434-1.192 1.102-2.003-.332-.812-2.557-1.535-2.557-1.535z"
      fill="#0084ff" />
   <path
      d="M22.196 9.74s-.88 1.128-.67 1.64c.212.51.918.764 1.577.553.66-.206 1.018-.79.807-1.308-.211-.511-1.714-.885-1.714-.885z"
      fill="#2b1fa6" />
   <path
      d="M22.365 18.787c.907 1.191 2.478 2.146 4.086 1.603.026-.011.053-.016.08-.027 1.57-.575 1.818-2.277 1.491-3.643-.5-2.082-3.896-1.73-4.28-2.014-.101.448-2.69 2.357-1.377 4.08z"
      fill="#008777" />
   <path
      d="M24.469 16.24s-1.255 1.798-.818 2.71c.438.912 1.593 1.36 2.59.997.99-.364 1.444-1.397 1.006-2.315-.437-.912-2.778-1.392-2.778-1.392z"
      fill="#deb366" />
   <path
      d="M24.77 16.868s-.887 1.513-.575 2.161c.31.649 1.17.955 1.924.675.754-.274 1.118-1.028.807-1.676-.306-.644-2.157-1.16-2.157-1.16z"
      fill="#0084ff" />
   <path
      d="M25.122 17.606s-.67.954-.469 1.365c.195.412.786.59 1.313.396.527-.195.796-.686.601-1.097-.2-.411-1.445-.664-1.445-.664z"
      fill="#2b1fa6" />
   <path
      d="M17.768 23.8c1.428.739 3.348 1.002 4.56-.126.021-.016.042-.037.058-.053 1.155-1.138.533-2.804-.453-3.927-1.508-1.72-4.445-.069-4.94-.18.126.448-1.297 3.216.775 4.287z"
      fill="#008777" />
   <path
      d="M18.421 20.637s-.253 2.14.607 2.81c.86.67 2.146.628 2.878-.095.733-.722.628-1.85-.232-2.52-.859-.664-3.253-.195-3.253-.195z"
      fill="#deb366" />
   <path
      d="M19.017 21.101s-.052 1.735.554 2.21c.611.474 1.555.416 2.109-.132.553-.549.511-1.377-.1-1.856-.607-.475-2.563-.222-2.563-.222z"
      fill="#0084ff" />
   <path
      d="M19.708 21.639s-.137 1.139.248 1.44c.385.3 1.012.237 1.402-.148.39-.385.39-.939.005-1.24-.384-.305-1.655-.052-1.655-.052z"
      fill="#2b1fa6" />
   <path
      d="M24.163 28.751c1.033.617 2.446.907 3.39.127.016-.01.032-.027.047-.037.907-.791.506-2.062-.179-2.947-1.05-1.35-3.3-.27-3.664-.375.079.343-1.091 2.336.406 3.232z"
      fill="#00717d" />
   <path
      d="M24.774 26.431s-.274 1.582.338 2.12c.611.538 1.566.57 2.14.068.575-.5.543-1.344-.068-1.882-.606-.543-2.41-.306-2.41-.306z"
      fill="#deb366" />
   <path
      d="M25.202 26.8s-.111 1.287.321 1.672a1.22 1.22 0 001.571.005c.433-.38.438-1.002 0-1.381-.432-.385-1.892-.295-1.892-.295z"
      fill="#0084ff" />
   <path
      d="M25.692 27.238s-.148.838.126 1.08c.275.243.744.228 1.05-.041.305-.27.326-.68.052-.923-.274-.242-1.228-.116-1.228-.116z"
      fill="#2b1fa6" />
   <path
      d="M10.381 16.024c1.255 1.265 3.232 2.178 5.004 1.34.026-.017.058-.027.084-.043 1.719-.87 1.708-2.884 1.091-4.429-.943-2.356-4.803-1.513-5.298-1.792-.032.532-2.694 3.09-.88 4.924z"
      fill="#00b5a9" />
   <path
      d="M12.374 12.787s-1.139 2.251-.474 3.258c.664 1.007 2.077 1.376 3.163.828 1.086-.548 1.429-1.814.765-2.82-.66-1.008-3.454-1.266-3.454-1.266z"
      fill="#deb366" />
   <path
      d="M12.833 13.483s-.76 1.872-.29 2.589c.47.717 1.518.954 2.346.537.823-.416 1.113-1.339.643-2.05-.469-.718-2.699-1.076-2.699-1.076z"
      fill="#0084ff" />
   <path
      d="M13.365 14.295s-.606 1.197-.31 1.65c.3.453 1.006.585 1.586.295.575-.29.802-.896.506-1.35-.3-.458-1.782-.595-1.782-.595z"
      fill="#2b1fa6" />
   <path
      d="M6.158 23.126c1.498.896 3.56 1.302 4.946.147.02-.02.047-.036.068-.058 1.324-1.17.76-3.02-.237-4.307-1.518-1.966-4.808-.353-5.34-.5.11.5-1.609 3.42.563 4.718z"
      fill="#00b5a9" />
   <path
      d="M7.07 19.72s-.41 2.314.475 3.1c.886.78 2.283.817 3.121.08.838-.739.801-1.978-.084-2.758-.886-.786-3.512-.422-3.512-.422z"
      fill="#deb366" />
   <path
      d="M7.687 20.263s-.168 1.887.459 2.441c.627.554 1.655.548 2.293-.01.638-.565.644-1.471.016-2.025-.632-.559-2.768-.406-2.768-.406z"
      fill="#0084ff" />
   <path
      d="M8.4 20.89s-.222 1.229.178 1.582c.401.353 1.081.322 1.53-.074.442-.395.484-.996.084-1.35-.401-.353-1.793-.158-1.793-.158z"
      fill="#2b1fa6" />
   <path
      d="M14.23 29.379c1.381.822 3.274 1.196 4.545.137.02-.016.042-.032.063-.053 1.218-1.076.696-2.778-.221-3.965-1.398-1.808-4.424-.321-4.909-.464.106.464-1.476 3.153.522 4.345z"
      fill="#008777" />
   <path
      d="M15.068 26.247s-.38 2.13.438 2.852c.812.717 2.098.749 2.868.074.77-.68.733-1.819-.079-2.536-.812-.727-3.227-.39-3.227-.39z"
      fill="#deb366" />
   <path
      d="M15.638 26.743s-.158 1.734.422 2.245c.58.512 1.523.507 2.108-.01.586-.517.59-1.35.011-1.861-.58-.512-2.541-.374-2.541-.374z"
      fill="#0084ff" />
   <path
      d="M16.292 27.322s-.206 1.129.163 1.456c.369.326.996.295 1.408-.069.41-.364.442-.917.079-1.244-.37-.322-1.65-.143-1.65-.143z"
      fill="#2b1fa6" />
   <path
      d="M20.973 33.501c.95.565 2.251.823 3.121.095.016-.01.027-.02.043-.037.838-.738.48-1.908-.153-2.72-.96-1.239-3.037-.221-3.375-.316.08.31-1.007 2.161.364 2.978z"
      fill="#00717d" />
   <path
      d="M21.548 31.35s-.258 1.46.3 1.956c.56.496 1.44.517 1.972.048.527-.47.506-1.25-.053-1.74-.558-.496-2.22-.264-2.22-.264z"
      fill="#deb366" />
   <path
      d="M21.938 31.693s-.105 1.192.29 1.545c.395.353 1.044.348 1.45-.005.4-.354.406-.928.01-1.282-.4-.353-1.75-.258-1.75-.258z"
      fill="#0084ff" />
   <path
      d="M22.386 32.089s-.142.775.11 1.001c.254.222.686.2.966-.047.28-.248.305-.633.052-.854-.247-.222-1.128-.1-1.128-.1z"
      fill="#2b1fa6" />
   <path
      d="M3.243 32.473c1.782.543 3.98.46 5.019-1.028.016-.026.037-.047.053-.074.975-1.492-.158-3.22-1.556-4.275-2.124-1.614-4.945.79-5.525.764.269.475-.57 3.828 2.009 4.613z"
      fill="#00b5a9" />
   <path
      d="M3.122 28.83s.295 2.426 1.423 3.005c1.128.575 2.547.28 3.163-.664.617-.944.2-2.177-.927-2.752-1.129-.58-3.66.411-3.66.411z"
      fill="#deb366" />
   <path
      d="M3.907 29.226s.406 1.94 1.207 2.346c.802.411 1.835.158 2.304-.559.47-.717.2-1.634-.606-2.04-.801-.406-2.905.253-2.905.253z"
      fill="#0084ff" />
   <path
      d="M4.814 29.69s.153 1.291.659 1.55c.511.258 1.186.063 1.518-.438.327-.5.18-1.118-.326-1.381-.507-.259-1.851.269-1.851.269z"
      fill="#2b1fa6" />
   <path
      d="M11.109 36.196c1.64.5 3.659.421 4.618-.944a.772.772 0 00.048-.069c.896-1.376-.148-2.963-1.429-3.933-1.956-1.487-4.545.728-5.082.707.242.432-.528 3.516 1.845 4.239z"
      fill="#008777" />
   <path
      d="M10.998 32.848s.27 2.235 1.308 2.762c1.038.528 2.34.259 2.91-.611.57-.87.185-2.004-.854-2.53-1.039-.539-3.364.379-3.364.379z"
      fill="#deb366" />
   <path
      d="M11.715 33.211s.37 1.782 1.107 2.162c.739.374 1.688.148 2.12-.511.432-.66.184-1.503-.554-1.877-.738-.38-2.673.226-2.673.226z"
      fill="#0084ff" />
   <path
      d="M12.554 33.639s.137 1.186.606 1.423c.47.237 1.091.058 1.392-.4.3-.465.168-1.029-.3-1.271-.465-.238-1.698.248-1.698.248z"
      fill="#2b1fa6" />
   <path
      d="M19.692 38.89c1.097.332 2.452.284 3.095-.633a.293.293 0 01.031-.042c.602-.923-.1-1.983-.96-2.636-1.312-.997-3.046.485-3.405.474.164.285-.353 2.352 1.24 2.837z"
      fill="#00717d" />
   <path
      d="M19.618 36.644s.18 1.497.875 1.85c.696.353 1.572.174 1.951-.411.38-.58.127-1.344-.575-1.698-.695-.353-2.25.259-2.25.259z"
      fill="#deb366" />
   <path
      d="M20.098 36.886s.248 1.197.743 1.45c.496.253 1.129.1 1.419-.343.29-.443.12-1.007-.375-1.26-.49-.253-1.787.153-1.787.153z"
      fill="#0084ff" />
   <path
      d="M20.657 37.176s.095.796.406.954c.316.159.733.037.933-.268.2-.312.11-.691-.2-.85-.311-.163-1.14.164-1.14.164z"
      fill="#2b1fa6" />
   <path
      d="M3.902 41.694c1.576.053 3.316-.48 3.743-1.898.005-.02.016-.047.021-.068.375-1.408-1.007-2.547-2.42-3.095-2.145-.838-3.743 1.692-4.217 1.793.342.327.59 3.19 2.873 3.268z"
      fill="#00b5a9" />
   <path
      d="M2.805 38.8s.902 1.882 1.962 2.104c1.065.221 2.114-.322 2.35-1.208.238-.89-.431-1.787-1.496-2.008-1.06-.222-2.816 1.112-2.816 1.112z"
      fill="#deb366" />
   <path
      d="M3.543 38.953s.854 1.466 1.608 1.624c.754.158 1.514-.264 1.693-.939.179-.675-.29-1.35-1.044-1.508-.754-.158-2.257.823-2.257.823z"
      fill="#0084ff" />
   <path
      d="M4.403 39.127s.474 1.002.954 1.102c.48.1.97-.2 1.097-.675a.824.824 0 00-.644-1.033c-.48-.1-1.407.606-1.407.606z"
      fill="#2b1fa6" />
   <path
      d="M11.225 43.002c1.45.047 3.047-.443 3.443-1.745.005-.021.016-.042.02-.063.343-1.292-.927-2.341-2.224-2.847-1.977-.775-3.448 1.555-3.88 1.65.31.295.543 2.931 2.641 3.005z"
      fill="#008777" />
   <path
      d="M10.218 40.334s.828 1.735 1.808 1.935c.976.2 1.946-.295 2.167-1.112.216-.818-.4-1.645-1.376-1.85-.986-.201-2.599 1.027-2.599 1.027z"
      fill="#deb366" />
   <path
      d="M10.898 40.477s.786 1.35 1.482 1.492c.695.142 1.391-.243 1.555-.865.163-.622-.264-1.244-.96-1.387-.696-.142-2.077.76-2.077.76z"
      fill="#0084ff" />
   <path d="M11.684 40.64s.437.923.875 1.012a.87.87 0 001.007-.622.765.765 0 00-.59-.954c-.438-.09-1.292.564-1.292.564z"
      fill="#2b1fa6" />
   <path
      d="M19.993 43.983c1.154.042 2.43-.354 2.741-1.387a.652.652 0 00.016-.053c.274-1.028-.738-1.866-1.771-2.267-1.572-.617-2.742 1.24-3.09 1.313.248.237.427 2.34 2.104 2.394z"
      fill="#00717d" />
   <path
      d="M19.191 41.863s.66 1.381 1.44 1.54c.78.163 1.55-.238 1.724-.886.174-.654-.317-1.308-1.097-1.471-.786-.163-2.067.817-2.067.817z"
      fill="#deb366" />
   <path
      d="M19.729 41.974s.627 1.075 1.181 1.191c.554.116 1.107-.195 1.239-.685.132-.496-.211-.991-.765-1.102-.553-.121-1.655.596-1.655.596z"
      fill="#0084ff" />
   <path d="M20.356 42.106s.348.732.702.806a.688.688 0 00.801-.495.607.607 0 00-.47-.76c-.353-.073-1.033.449-1.033.449z"
      fill="#2b1fa6" />
   <path
      d="M6.216 50.272c1.403-.316 2.774-1.186 2.731-2.525v-.063c-.084-1.324-1.634-2.01-3.036-2.167-2.136-.248-2.8 2.346-3.185 2.546.4.2 1.46 2.663 3.49 2.21z"
      fill="#00b5a9" />
   <path
      d="M4.403 47.979s1.344 1.45 2.346 1.397c1.002-.053 1.766-.77 1.713-1.603-.052-.838-.906-1.47-1.908-1.423-1.002.047-2.151 1.629-2.151 1.629z"
      fill="#deb366" />
   <path
      d="M5.093 47.942s1.187 1.097 1.893 1.06c.712-.037 1.255-.58 1.213-1.213-.042-.638-.649-1.123-1.36-1.086-.707.032-1.746 1.239-1.746 1.239z"
      fill="#0084ff" />
   <path d="M5.9 47.9s.712.77 1.165.748c.454-.02.791-.4.765-.843a.827.827 0 00-.87-.765c-.448.022-1.06.86-1.06.86z"
      fill="#2b1fa6" />
   <path
      d="M13.044 49.74c1.292-.29 2.552-1.092 2.515-2.325v-.058c-.08-1.218-1.508-1.846-2.795-1.993-1.966-.227-2.572 2.156-2.926 2.34.359.185 1.334 2.452 3.206 2.036z"
      fill="#008777" />
   <path
      d="M11.373 47.626s1.239 1.333 2.156 1.286c.917-.047 1.624-.706 1.576-1.476-.047-.77-.838-1.355-1.755-1.308-.918.048-1.977 1.498-1.977 1.498z"
      fill="#deb366" />
   <path
      d="M12.01 47.594s1.092 1.007 1.74.975c.654-.031 1.155-.532 1.118-1.117-.037-.586-.596-1.034-1.25-.997-.653.027-1.607 1.139-1.607 1.139z"
      fill="#0084ff" />
   <path d="M12.754 47.557s.654.712 1.07.69a.73.73 0 00.701-.774.758.758 0 00-.801-.701c-.411.015-.97.785-.97.785z"
      fill="#2b1fa6" />
   <path
      d="M21.5 49.202c1.176-.264 2.33-.996 2.294-2.125v-.052c-.074-1.113-1.376-1.687-2.552-1.82-1.792-.205-2.351 1.973-2.673 2.141.338.169 1.229 2.24 2.931 1.856z"
      fill="#00717d" />
   <path
      d="M19.977 47.278s1.128 1.218 1.972 1.175c.838-.042 1.481-.643 1.439-1.344-.048-.701-.765-1.239-1.603-1.197-.843.037-1.808 1.366-1.808 1.366z"
      fill="#deb366" />
   <path
      d="M20.557 47.246s.996.917 1.592.891c.596-.032 1.054-.485 1.017-1.017-.036-.533-.548-.944-1.144-.913-.595.027-1.465 1.039-1.465 1.039z"
      fill="#0084ff" />
   <path d="M21.237 47.21s.596.648.975.627a.674.674 0 00.643-.712.7.7 0 00-.727-.643c-.38.026-.891.727-.891.727z"
      fill="#2b1fa6" />
   <path
      d="M11.494 56.852c1.165-.612 2.135-1.703 1.687-2.879-.005-.02-.016-.037-.021-.058-.48-1.149-2.088-1.386-3.4-1.196-1.999.29-1.804 2.73-2.088 3 .427.089 2.135 2.019 3.822 1.133z"
      fill="#00b5a9" />
   <path
      d="M9.158 55.254s1.656.96 2.541.68c.886-.279 1.355-1.096 1.055-1.818-.306-.728-1.27-1.086-2.156-.807-.886.28-1.44 1.945-1.44 1.945z"
      fill="#deb366" />
   <path
      d="M9.77 55.06s1.402.685 2.03.484c.627-.2.949-.806.722-1.36-.232-.553-.928-.838-1.555-.638-.633.206-1.197 1.513-1.197 1.513z"
      fill="#0084ff" />
   <path
      d="M10.487 54.833s.875.511 1.276.385c.4-.127.59-.543.432-.928a.848.848 0 00-1.017-.47c-.401.132-.691 1.013-.691 1.013z"
      fill="#2b1fa6" />
   <path
      d="M17.478 54.77c1.075-.56 1.966-1.566 1.555-2.647-.005-.016-.01-.037-.021-.053-.443-1.054-1.92-1.276-3.126-1.102-1.84.264-1.656 2.515-1.92 2.763.385.079 1.956 1.85 3.512 1.038z"
      fill="#008777" />
   <path
      d="M15.327 53.299s1.523.885 2.335.627 1.25-1.007.97-1.677c-.28-.67-1.165-1.001-1.982-.743-.812.258-1.323 1.793-1.323 1.793z"
      fill="#deb366" />
   <path
      d="M15.89 53.12s1.287.632 1.867.447c.58-.184.875-.743.664-1.25-.21-.505-.854-.769-1.434-.584-.574.179-1.096 1.386-1.096 1.386z"
      fill="#0084ff" />
   <path d="M16.55 52.908s.807.47 1.176.354a.624.624 0 00.395-.854.78.78 0 00-.933-.433c-.37.121-.638.933-.638.933z"
      fill="#2b1fa6" />
   <path
      d="M24.996 52.682c.98-.512 1.792-1.43 1.418-2.415l-.016-.047c-.406-.965-1.75-1.166-2.852-1.007-1.677.242-1.513 2.293-1.756 2.52.348.073 1.788 1.692 3.206.949z"
      fill="#00717d" />
   <path
      d="M23.035 51.343s1.392.806 2.135.569c.743-.237 1.139-.923.886-1.529-.253-.612-1.065-.912-1.809-.675-.748.232-1.212 1.635-1.212 1.635z"
      fill="#deb366" />
   <path
      d="M23.546 51.174s1.176.574 1.703.411c.527-.169.796-.68.606-1.139-.195-.464-.78-.7-1.307-.532-.527.163-1.002 1.26-1.002 1.26z"
      fill="#0084ff" />
   <path d="M24.147 50.984s.738.432 1.07.322a.573.573 0 00.364-.78.714.714 0 00-.854-.396c-.337.116-.58.854-.58.854z"
      fill="#2b1fa6" />
   <path
      d="M45.257 11.031c-1.028 1.503-2.879 2.752-4.882 2.178-.032-.01-.063-.016-.1-.027-1.962-.616-2.378-2.683-2.072-4.37.469-2.573 4.634-2.325 5.087-2.694.159.543 3.454 2.741 1.967 4.913z"
      fill="#00b5a9" />
   <path
      d="M42.51 8.032s1.656 2.13 1.186 3.268c-.469 1.14-1.85 1.745-3.09 1.36-1.238-.39-1.86-1.629-1.391-2.767.47-1.144 3.295-1.861 3.295-1.861z"
      fill="#deb366" />
   <path
      d="M42.183 8.822s1.181 1.798.85 2.61c-.333.807-1.366 1.223-2.305.928-.938-.295-1.434-1.192-1.102-2.003.332-.812 2.557-1.535 2.557-1.535z"
      fill="#0084ff" />
   <path
      d="M41.809 9.74s.88 1.128.67 1.64c-.211.51-.918.764-1.577.553-.659-.206-1.017-.79-.807-1.308.211-.511 1.714-.885 1.714-.885z"
      fill="#2b1fa6" />
   <path
      d="M41.64 18.787c-.907 1.191-2.478 2.146-4.086 1.603-.026-.011-.052-.016-.079-.027-1.57-.575-1.819-2.277-1.492-3.643.501-2.082 3.896-1.73 4.281-2.014.1.448 2.689 2.357 1.376 4.08z"
      fill="#008777" />
   <path
      d="M39.537 16.24s1.254 1.798.817 2.71c-.438.912-1.592 1.36-2.589.997-.991-.364-1.444-1.397-1.007-2.315.438-.912 2.779-1.392 2.779-1.392z"
      fill="#deb366" />
   <path
      d="M39.236 16.868s.886 1.513.575 2.161c-.311.649-1.17.955-1.925.675-.754-.274-1.117-1.028-.806-1.676.306-.644 2.156-1.16 2.156-1.16z"
      fill="#0084ff" />
   <path
      d="M38.883 17.606s.67.954.47 1.365c-.196.412-.786.59-1.314.396-.527-.195-.796-.686-.6-1.097.2-.411 1.444-.664 1.444-.664z"
      fill="#2b1fa6" />
   <path
      d="M46.238 23.8c-1.43.739-3.348 1.002-4.56-.126-.022-.016-.043-.037-.059-.053-1.154-1.138-.532-2.804.454-3.927 1.507-1.72 4.444-.069 4.94-.18-.127.448 1.297 3.216-.775 4.287z"
      fill="#008777" />
   <path
      d="M45.584 20.637s.253 2.14-.607 2.81c-.859.67-2.145.628-2.878-.095-.733-.722-.628-1.85.232-2.52.86-.664 3.253-.195 3.253-.195z"
      fill="#deb366" />
   <path
      d="M44.988 21.101s.053 1.735-.554 2.21c-.611.474-1.555.416-2.108-.132-.554-.549-.512-1.377.1-1.856.606-.475 2.562-.222 2.562-.222z"
      fill="#0084ff" />
   <path
      d="M44.297 21.639s.137 1.139-.247 1.44c-.385.3-1.013.237-1.403-.148-.39-.385-.39-.939-.005-1.24.385-.305 1.655-.052 1.655-.052z"
      fill="#2b1fa6" />
   <path
      d="M39.3 28.06c-1.092.507-2.531.649-3.385-.22l-.043-.043c-.817-.88-.29-2.098.485-2.91 1.187-1.234 3.311.079 3.686.01-.122.327.838 2.43-.744 3.164z"
      fill="#00717d" />
   <path
      d="M38.93 25.688s.106 1.598-.553 2.072c-.665.475-1.619.406-2.136-.153-.516-.559-.4-1.392.264-1.866.66-.475 2.425-.053 2.425-.053z"
      fill="#deb366" />
   <path
      d="M38.472 26.015s-.027 1.292-.496 1.63c-.47.336-1.17.263-1.566-.16-.395-.42-.327-1.038.143-1.375.469-.338 1.919-.095 1.919-.095z"
      fill="#0084ff" />
   <path
      d="M37.934 26.4s.058.849-.237 1.065c-.3.21-.765.147-1.039-.148-.274-.295-.253-.712.042-.922.3-.222 1.234.005 1.234.005z"
      fill="#2b1fa6" />
   <path
      d="M53.624 16.024c-1.255 1.265-3.232 2.178-5.003 1.34-.027-.017-.058-.027-.085-.043-1.719-.87-1.708-2.884-1.091-4.429.944-2.356 4.803-1.513 5.298-1.792.032.532 2.694 3.09.88 4.924z"
      fill="#00b5a9" />
   <path
      d="M51.631 12.787s1.139 2.251.474 3.258c-.664 1.007-2.077 1.376-3.163.828-1.086-.548-1.429-1.814-.764-2.82.659-1.008 3.453-1.266 3.453-1.266z"
      fill="#deb366" />
   <path
      d="M51.172 13.483s.76 1.872.29 2.589c-.469.717-1.518.954-2.346.537-.822-.416-1.112-1.339-.643-2.05.47-.718 2.7-1.076 2.7-1.076z"
      fill="#0084ff" />
   <path
      d="M50.64 14.295s.606 1.197.31 1.65c-.3.453-1.006.585-1.586.295-.575-.29-.801-.896-.506-1.35.3-.458 1.782-.595 1.782-.595z"
      fill="#2b1fa6" />
   <path
      d="M57.847 23.126c-1.497.896-3.559 1.302-4.945.147-.022-.02-.048-.036-.069-.058-1.323-1.17-.76-3.02.237-4.307 1.519-1.966 4.809-.353 5.341-.5-.11.5 1.608 3.42-.564 4.718z"
      fill="#00b5a9" />
   <path
      d="M56.935 19.72s.411 2.314-.475 3.1c-.885.78-2.283.817-3.12.08-.84-.739-.802-1.978.084-2.758.885-.786 3.51-.422 3.51-.422z"
      fill="#deb366" />
   <path
      d="M56.318 20.263s.169 1.887-.459 2.441c-.627.554-1.655.548-2.293-.01-.638-.565-.643-1.471-.016-2.025.633-.559 2.768-.406 2.768-.406z"
      fill="#0084ff" />
   <path
      d="M55.606 20.89s.222 1.229-.179 1.582c-.4.353-1.08.322-1.529-.074-.443-.395-.485-.996-.084-1.35.4-.353 1.792-.158 1.792-.158z"
      fill="#2b1fa6" />
   <path
      d="M49.775 29.379c-1.381.822-3.274 1.196-4.544.137-.022-.016-.043-.032-.064-.053-1.218-1.076-.696-2.778.222-3.965 1.397-1.808 4.423-.321 4.908-.464-.105.464 1.476 3.153-.522 4.345z"
      fill="#008777" />
   <path
      d="M48.937 26.247s.38 2.13-.438 2.852c-.812.717-2.098.749-2.868.074-.77-.68-.733-1.819.08-2.536.811-.727 3.226-.39 3.226-.39z"
      fill="#deb366" />
   <path
      d="M48.368 26.743s.158 1.734-.422 2.245c-.58.512-1.524.507-2.11-.01-.584-.517-.59-1.35-.01-1.861.58-.512 2.541-.374 2.541-.374z"
      fill="#0084ff" />
   <path
      d="M47.714 27.322s.205 1.129-.164 1.456c-.369.326-.996.295-1.407-.069-.412-.364-.443-.917-.08-1.244.37-.322 1.65-.143 1.65-.143z"
      fill="#2b1fa6" />
   <path
      d="M42.436 33.844c-.949.564-2.25.823-3.12.095-.017-.01-.027-.021-.043-.037-.838-.738-.48-1.908.153-2.72.96-1.24 3.037-.222 3.374-.317-.079.311 1.007 2.162-.364 2.98z"
      fill="#00717d" />
   <path
      d="M41.862 31.693s.258 1.46-.3 1.956c-.56.496-1.44.517-1.973.048-.527-.47-.506-1.25.053-1.74.559-.496 2.22-.264 2.22-.264z"
      fill="#deb366" />
   <path
      d="M41.471 32.03s.106 1.192-.29 1.545c-.395.353-1.043.348-1.45-.005-.4-.353-.405-.928-.01-1.281.4-.353 1.75-.259 1.75-.259z"
      fill="#0084ff" />
   <path
      d="M41.018 32.431s.142.775-.11 1.002c-.254.221-.686.2-.965-.048-.28-.247-.306-.632-.053-.854.253-.226 1.128-.1 1.128-.1z"
      fill="#2b1fa6" />
   <path
      d="M60.762 32.473c-1.782.543-3.98.46-5.019-1.028-.016-.026-.037-.047-.052-.074-.976-1.492.158-3.22 1.555-4.275 2.125-1.614 4.945.79 5.525.764-.269.475.57 3.828-2.009 4.613z"
      fill="#00b5a9" />
   <path
      d="M60.884 28.83s-.296 2.426-1.424 3.005c-1.128.575-2.546.28-3.163-.664-.617-.944-.2-2.177.928-2.752 1.128-.58 3.659.411 3.659.411z"
      fill="#deb366" />
   <path
      d="M60.098 29.226s-.406 1.94-1.207 2.346c-.802.411-1.835.158-2.304-.559-.47-.717-.2-1.634.606-2.04.802-.406 2.905.253 2.905.253z"
      fill="#0084ff" />
   <path
      d="M59.191 29.69s-.153 1.291-.659 1.55c-.511.258-1.186.063-1.518-.438-.327-.5-.18-1.118.327-1.381.506-.259 1.85.269 1.85.269z"
      fill="#2b1fa6" />
   <path
      d="M52.896 36.196c-1.64.5-3.659.421-4.618-.944a.772.772 0 01-.048-.069c-.896-1.376.148-2.963 1.43-3.933 1.955-1.487 4.544.728 5.082.707-.243.432.527 3.516-1.846 4.239z"
      fill="#008777" />
   <path
      d="M53.007 32.848s-.269 2.235-1.307 2.762c-1.04.528-2.341.259-2.91-.611-.57-.87-.185-2.004.853-2.53 1.039-.539 3.364.379 3.364.379z"
      fill="#deb366" />
   <path
      d="M52.29 33.211s-.369 1.782-1.107 2.162c-.738.374-1.687.148-2.12-.511-.432-.66-.184-1.503.554-1.877.738-.38 2.673.226 2.673.226z"
      fill="#0084ff" />
   <path
      d="M51.452 33.639s-.137 1.186-.607 1.423c-.469.237-1.09.058-1.391-.4-.3-.465-.17-1.029.3-1.271.464-.238 1.698.248 1.698.248z"
      fill="#2b1fa6" />
   <path
      d="M44.313 38.89c-1.096.332-2.451.284-3.095-.633a.293.293 0 00-.031-.042c-.601-.923.1-1.983.96-2.636 1.312-.997 3.047.485 3.405.474-.163.285.353 2.352-1.239 2.837z"
      fill="#00717d" />
   <path
      d="M44.387 36.644s-.18 1.497-.875 1.85c-.696.353-1.571.174-1.95-.411-.38-.58-.127-1.344.574-1.698.696-.353 2.251.259 2.251.259z"
      fill="#deb366" />
   <path
      d="M43.907 36.886s-.248 1.197-.743 1.45c-.496.253-1.128.1-1.418-.343-.29-.443-.122-1.007.374-1.26.49-.253 1.787.153 1.787.153z"
      fill="#0084ff" />
   <path
      d="M43.348 37.176s-.095.796-.406.954c-.316.159-.732.037-.933-.268-.2-.312-.11-.691.2-.85.312-.163 1.14.164 1.14.164z"
      fill="#2b1fa6" />
   <path
      d="M60.103 41.694c-1.576.053-3.316-.48-3.743-1.898-.005-.02-.016-.047-.021-.068-.374-1.408 1.007-2.547 2.42-3.095 2.146-.838 3.743 1.692 4.218 1.793-.343.327-.59 3.19-2.874 3.268z"
      fill="#00b5a9" />
   <path
      d="M61.2 38.8s-.902 1.882-1.961 2.104c-1.065.221-2.114-.322-2.352-1.208-.237-.89.433-1.787 1.498-2.008 1.06-.222 2.815 1.112 2.815 1.112z"
      fill="#deb366" />
   <path
      d="M60.462 38.953s-.854 1.466-1.608 1.624c-.754.158-1.513-.264-1.692-.939-.18-.675.29-1.35 1.043-1.508.754-.158 2.257.823 2.257.823z"
      fill="#0084ff" />
   <path
      d="M59.603 39.127s-.475 1.002-.955 1.102c-.48.1-.97-.2-1.096-.675a.824.824 0 01.643-1.033c.48-.1 1.408.606 1.408.606z"
      fill="#2b1fa6" />
   <path
      d="M52.78 43.002c-1.45.047-3.047-.443-3.442-1.745-.006-.021-.016-.042-.022-.063-.342-1.292.928-2.341 2.225-2.847 1.977-.775 3.448 1.555 3.88 1.65-.31.295-.542 2.931-2.64 3.005z"
      fill="#008777" />
   <path
      d="M53.787 40.334s-.827 1.735-1.808 1.935c-.975.2-1.945-.295-2.167-1.112-.216-.818.4-1.645 1.376-1.85.986-.201 2.6 1.027 2.6 1.027z"
      fill="#deb366" />
   <path
      d="M53.107 40.477s-.785 1.35-1.481 1.492c-.696.142-1.392-.243-1.556-.865-.163-.622.264-1.244.96-1.387.696-.142 2.077.76 2.077.76z"
      fill="#0084ff" />
   <path
      d="M52.322 40.64s-.438.923-.876 1.012a.87.87 0 01-1.007-.622.765.765 0 01.591-.954c.438-.09 1.292.564 1.292.564z"
      fill="#2b1fa6" />
   <path
      d="M44.013 43.983c-1.155.042-2.43-.354-2.742-1.387a.652.652 0 01-.016-.053c-.274-1.028.738-1.866 1.772-2.267 1.57-.617 2.741 1.24 3.09 1.313-.249.237-.428 2.34-2.104 2.394z"
      fill="#00717d" />
   <path
      d="M44.814 41.863s-.659 1.381-1.44 1.54c-.78.163-1.55-.238-1.723-.886-.174-.654.316-1.308 1.096-1.471.786-.163 2.067.817 2.067.817z"
      fill="#deb366" />
   <path
      d="M44.276 41.974s-.627 1.075-1.18 1.191c-.554.116-1.108-.195-1.24-.685-.131-.496.211-.991.765-1.102.553-.121 1.655.596 1.655.596z"
      fill="#0084ff" />
   <path
      d="M43.649 42.106s-.348.732-.701.806a.688.688 0 01-.802-.495.607.607 0 01.47-.76c.353-.073 1.033.449 1.033.449z"
      fill="#2b1fa6" />
   <path
      d="M57.789 50.272c-1.403-.316-2.773-1.186-2.731-2.525v-.063c.084-1.324 1.634-2.01 3.037-2.167 2.135-.248 2.8 2.346 3.184 2.546-.4.2-1.46 2.663-3.49 2.21z"
      fill="#00b5a9" />
   <path
      d="M59.603 47.979s-1.345 1.45-2.347 1.397c-1.001-.053-1.766-.77-1.713-1.603.053-.838.907-1.47 1.908-1.423 1.002.047 2.152 1.629 2.152 1.629z"
      fill="#deb366" />
   <path
      d="M58.912 47.942s-1.186 1.097-1.893 1.06c-.712-.037-1.255-.58-1.212-1.213.042-.638.648-1.123 1.36-1.086.706.032 1.745 1.239 1.745 1.239z"
      fill="#0084ff" />
   <path d="M58.105 47.9s-.712.77-1.165.748a.796.796 0 01-.764-.843.827.827 0 01.87-.765c.448.022 1.06.86 1.06.86z"
      fill="#2b1fa6" />
   <path
      d="M50.961 49.74c-1.291-.29-2.551-1.092-2.514-2.325v-.058c.079-1.218 1.507-1.846 2.794-1.993 1.966-.227 2.573 2.156 2.926 2.34-.359.185-1.334 2.452-3.206 2.036z"
      fill="#008777" />
   <path
      d="M52.633 47.626s-1.24 1.333-2.157 1.286c-.917-.047-1.623-.706-1.576-1.476.047-.77.838-1.355 1.756-1.308.917.048 1.977 1.498 1.977 1.498z"
      fill="#deb366" />
   <path
      d="M51.995 47.594s-1.092 1.007-1.74.975c-.654-.031-1.155-.532-1.118-1.117.037-.586.596-1.034 1.25-.997.654.027 1.608 1.139 1.608 1.139z"
      fill="#0084ff" />
   <path d="M51.251 47.557s-.653.712-1.07.69a.73.73 0 01-.701-.774.758.758 0 01.801-.701c.412.015.97.785.97.785z"
      fill="#2b1fa6" />
   <path
      d="M42.505 49.202c-1.176-.264-2.33-.996-2.294-2.125v-.052c.074-1.113 1.376-1.687 2.552-1.82 1.793-.205 2.352 1.973 2.673 2.141-.337.169-1.228 2.24-2.931 1.856z"
      fill="#00717d" />
   <path
      d="M44.028 47.278s-1.128 1.218-1.971 1.175c-.839-.042-1.482-.643-1.44-1.344.048-.701.765-1.239 1.603-1.197.844.037 1.808 1.366 1.808 1.366z"
      fill="#deb366" />
   <path
      d="M43.449 47.246s-.997.917-1.593.891c-.595-.032-1.054-.485-1.017-1.017.037-.533.548-.944 1.144-.913.596.027 1.466 1.039 1.466 1.039z"
      fill="#0084ff" />
   <path d="M42.768 47.21s-.595.648-.975.627a.674.674 0 01-.643-.712.7.7 0 01.727-.643c.38.026.891.727.891.727z"
      fill="#2b1fa6" />
   <path
      d="M52.511 56.852c-1.165-.612-2.135-1.703-1.687-2.879.006-.02.016-.037.021-.058.48-1.149 2.088-1.386 3.401-1.196 1.998.29 1.803 2.73 2.088 3-.427.089-2.135 2.019-3.823 1.133z"
      fill="#00b5a9" />
   <path
      d="M54.847 55.254s-1.655.96-2.541.68c-.886-.279-1.355-1.096-1.055-1.818.306-.728 1.271-1.086 2.157-.807.885.28 1.439 1.945 1.439 1.945z"
      fill="#deb366" />
   <path
      d="M54.235 55.06s-1.402.685-2.03.484c-.627-.2-.948-.806-.722-1.36.232-.553.928-.838 1.556-.638.632.206 1.196 1.513 1.196 1.513z"
      fill="#0084ff" />
   <path d="M53.518 54.833s-.875.511-1.275.385a.683.683 0 01-.433-.928.848.848 0 011.018-.47c.4.132.69 1.013.69 1.013z"
      fill="#2b1fa6" />
   <path
      d="M46.528 54.77c-1.076-.56-1.967-1.566-1.556-2.647.006-.016.01-.037.021-.053.443-1.054 1.92-1.276 3.127-1.102 1.84.264 1.655 2.515 1.919 2.763-.385.079-1.956 1.85-3.511 1.038z"
      fill="#008777" />
   <path
      d="M48.679 53.299s-1.524.885-2.336.627c-.812-.258-1.25-1.007-.97-1.677.28-.67 1.165-1.001 1.982-.743.812.258 1.324 1.793 1.324 1.793z"
      fill="#deb366" />
   <path
      d="M48.114 53.12s-1.286.632-1.866.447c-.58-.184-.875-.743-.664-1.25.21-.505.854-.769 1.434-.584.574.179 1.096 1.386 1.096 1.386z"
      fill="#0084ff" />
   <path d="M47.455 52.908s-.806.47-1.175.354a.624.624 0 01-.396-.854.78.78 0 01.933-.433c.37.121.638.933.638.933z"
      fill="#2b1fa6" />
   <path
      d="M39.52 52.682c-.98-.512-1.792-1.43-1.417-2.415l.015-.047c.406-.965 1.75-1.166 2.853-1.007 1.676.242 1.513 2.293 1.755 2.52-.348.073-1.782 1.692-3.205.949z"
      fill="#00717d" />
   <path
      d="M41.482 51.343s-1.392.806-2.135.569c-.744-.237-1.139-.923-.886-1.529.253-.612 1.065-.912 1.808-.675.75.232 1.213 1.635 1.213 1.635z"
      fill="#deb366" />
   <path
      d="M40.97 51.174s-1.175.574-1.702.411c-.528-.169-.796-.68-.607-1.139.195-.464.78-.7 1.308-.532.527.163 1.002 1.26 1.002 1.26z"
      fill="#0084ff" />
   <path d="M40.37 50.984s-.739.432-1.07.322a.573.573 0 01-.364-.78.714.714 0 01.854-.396c.337.116.58.854.58.854z"
      fill="#2b1fa6" />
   <path
      d="M35.382 56.963l3.121.78.048-.185-3.86-1.46h.016c-.511-2.62-.48-5.093-.158-6.485-.495-1.655.19-4.196.912-6.173l-2.99 1.423c1.097 1.286 1.23 3.1.438 4.75.596 1.355 1.434 4.181 1.055 6.59-.005.005-.016.005-.021.005l-1.956 2.046-1.956-2.046c-.385-2.409.453-5.24 1.054-6.6-.79-1.645-.659-3.464.438-4.75l-2.99-1.424c.723 1.977 1.408 4.518.913 6.174.321 1.392.353 3.864-.159 6.484l-3.87 1.46.048.185 3.121-.78c.137-.031.248.11.18.232l-1.508 2.731.163.063 2.367-2.815a.162.162 0 01.211-.032l1.967 1.34.016.026.01-.005.01.005.016-.026 1.967-1.34a.157.157 0 01.21.032l2.368 2.815.164-.063-1.524-2.726a.16.16 0 01.18-.232z"
      fill="#eda800" />
   <linearGradient id="prefix__b" x1="59.521" x2="59.521" y1="96.045" y2="103.21" gradientUnits="userSpaceOnUse"
      gradientTransform="matrix(.52722 0 0 .52722 -1.74 -5.318)">
      <stop offset="0" />
      <stop stop-color="#17316E" offset=".375" />
   </linearGradient>
   <path d="M31.533 46.687s-.1 2.299-.595 2.694c-.496.401-1.118.375-1.635 0-.516-.374-1.544-4.581-1.544-4.581z"
      fill="url(#prefix__b)" />
   <linearGradient id="prefix__c" x1="68.479" x2="68.479" y1="95.025" y2="103.81" gradientUnits="userSpaceOnUse"
      gradientTransform="matrix(.52722 0 0 .52722 -1.74 -5.318)">
      <stop offset="0" />
      <stop stop-color="#17316E" offset=".375" />
   </linearGradient>
   <path d="M32.472 46.687s.1 2.299.596 2.694c.495.401 1.117.375 1.634 0 .517-.374 1.545-4.581 1.545-4.581z"
      fill="url(#prefix__c)" />
   <path
      d="M32.894 12.46a.506.506 0 00.02.712c.206.19.523.18.712-.021.19-.2.18-.522-.02-.712a.506.506 0 00-.712.021z" />
   <path d="M33.51 12.94a.507.507 0 00-.363.617.5.5 0 00.617.358.5.5 0 00.358-.617.5.5 0 00-.612-.358z" />
   <path d="M32.461 12.534a.504.504 0 00.169.69.504.504 0 00.69-.168.504.504 0 00-.168-.69.5.5 0 00-.69.168z" />
   <path
      d="M31.338 13.019c.18.105.364.232.554.38-.348 1.766-1.582 2.166-3.1 1.919l.437-.396c.206.053.433.064.67.01.67-.142 1.118-.695 1.002-1.238a.907.907 0 00-.074-.211z"
      fill="#d9d9d9" />
   <linearGradient id="prefix__d" x1="45.171" x2="61.937" y1="36.621" y2="36.621" gradientUnits="userSpaceOnUse"
      gradientTransform="matrix(.52722 0 0 .52722 -1.74 -5.318)">
      <stop stop-color="#E9F5CE" offset="0" />
      <stop stop-color="#E5F3CD" offset=".125" />
      <stop stop-color="#D8EECA" offset=".257" />
      <stop stop-color="#C3E5C6" offset=".392" />
      <stop stop-color="#A6D9C0" offset=".53" />
      <stop stop-color="#80C9B9" offset=".669" />
      <stop stop-color="#51B6B0" offset=".809" />
      <stop stop-color="#1BA0A5" offset=".948" />
      <stop stop-color="#0596A1" offset="1" />
   </linearGradient>
   <path
      d="M30.917 12.798l-.59.242a1.407 1.407 0 00-.844-.074c-.496.106-.876.438-.986.828l-1.977.817.4.849a3.623 3.623 0 00-.59-.29c-1.745-.685-3.116-.996-4.255-.564.654-1.134 2.494-1.782 4.445-1.687v1.038c1.017-.221 2.235-2.135 4.397-1.16z"
      fill="url(#prefix__d)" />
   <path d="M30.895 13.7c.116.542-.332 1.101-1.001 1.238a1.504 1.504 0 01-.67-.01l1.592-1.44a.672.672 0 01.08.211z" />
   <path
      d="M30.822 13.483l-1.593 1.44c-.38-.1-.674-.365-.748-.718a.835.835 0 01.016-.411l1.83-.754a.997.997 0 01.495.443zM30.326 13.04l-1.83.754c.111-.39.49-.722.987-.828.3-.063.595-.031.843.074z" />
   <path
      d="M26.52 12.914v1.038c1.017-.216 2.235-2.13 4.397-1.154l-.59.242a.975.975 0 01.495.443l.516-.464c.18.105.364.232.554.38l1.703-1.297c-2.921-1.123-5.752-1.403-7.075.812z" />
   <linearGradient id="prefix__e" x1="63.774" x2="63.774" y1="32.5" y2="101.75" gradientUnits="userSpaceOnUse"
      gradientTransform="matrix(.52722 0 0 .52722 -1.74 -5.318)">
      <stop offset=".072" />
      <stop stop-color="#000506" offset=".159" />
      <stop stop-color="#011416" offset=".272" />
      <stop stop-color="#012D30" offset=".399" />
      <stop stop-color="#035055" offset=".535" />
      <stop stop-color="#047C84" offset=".678" />
      <stop stop-color="#0596A1" offset=".756" />
      <stop stop-color="#A9E022" offset="1" />
   </linearGradient>
   <path
      d="M36.621 28.836c-.896-2.14-1.845-4.318-2.188-6.58-.68-4.481-.838-10.154-.838-10.154l-1.703 1.297c-.348 1.766-1.582 2.166-3.1 1.919l.437-.396c-.38-.1-.674-.364-.748-.717a.835.835 0 01.016-.411l-1.946.712.375.949c2.056 1.255 2.504 3.674 2.282 6.796-.326 4.57-3.384 8.293-4.265 12.706-.59 2.973-.659 6.353.654 9.157 1.17 2.494 3.469 3.875 6.21 3.87 4.382-.005 6.749-3.163 7.313-7.28.464-3.417-.522-6.791-1.724-9.955a58.163 58.163 0 00-.775-1.913z"
      fill="url(#prefix__e)" />
   <path d="M33.205 10.873a.74.74 0 00.031 1.044.74.74 0 001.044-.032.74.74 0 00-.031-1.043.73.73 0 00-1.044.031z" />
   <path d="M34.106 11.57a.734.734 0 00-.527.9c.1.396.506.633.902.528a.734.734 0 00.527-.902.745.745 0 00-.902-.527z" />
   <path d="M32.572 10.979a.737.737 0 101.26.764.737.737 0 00-1.26-.764z" />
   <circle cx="30.094" cy="13.957" r="2.009" fill="#fff" />
   <circle cx="30.131" cy="13.952" r=".844" />
   <path
      d="M33.252 13.13l-.153-.058c.253-.638.348-1.318.433-1.983.137-1.017.274-2.077 1.012-3.026l.126.1c-.706.918-.843 1.951-.98 2.947-.085.67-.174 1.36-.438 2.02z" />
   <path
      d="M33.03 13.146l.017-.164c.685.058 1.365-.053 2.019-.158 1.017-.163 2.066-.337 3.19.095l-.059.153c-1.08-.417-2.108-.248-3.105-.085-.67.106-1.36.217-2.061.159z" />
   <path d="M37.206 12.687c.158-.248 1.129-.264 1.387-.316.437-.095.79-.027.712.637-.153 1.34-1.466-.052-2.02-.116"
      fill="#0ff" />
   <path
      d="M33.184 13.077l-.032-.158c.675-.127 1.297-.422 1.903-.707.933-.437 1.898-.89 3.095-.78l-.016.164c-1.154-.1-2.098.342-3.01.77-.612.279-1.244.58-1.94.711z" />
   <path d="M37.08 11.5c.084-.279 1.012-.558 1.244-.685.395-.21.754-.242.86.417.216 1.328-1.424.348-1.972.437"
      fill="#0ff" />
   <path
      d="M33.083 13.093l-.079-.143c.601-.332 1.102-.806 1.582-1.265.749-.706 1.518-1.44 2.689-1.713l.037.158c-1.129.263-1.882.98-2.615 1.676-.485.46-.997.944-1.614 1.287z" />
   <path d="M36.284 10.372c-.006-.295.785-.848.97-1.044.31-.326.638-.463.949.127.627 1.197-1.245.78-1.735 1.039"
      fill="#0ff" />
   <path
      d="M33.32 13.05l-.126-.105c.443-.522.744-1.144 1.034-1.745.448-.928.912-1.882 1.908-2.557l.09.137c-.96.649-1.413 1.582-1.856 2.489-.29.616-.596 1.244-1.05 1.782z" />
   <path
      d="M35.35 9.376c-.11-.274.433-1.07.538-1.318.174-.411.433-.66.928-.216 1.007.896-.886 1.17-1.255 1.581M34.022 9.002c-.19-.227.074-1.155.095-1.419.037-.448.205-.764.812-.5 1.239.532-.475 1.386-.696 1.898"
      fill="#0ff" />
</svg>